<svg xmlns="http://www.w3.org/2000/svg" xmlns:xlink="http://www.w3.org/1999/xlink" width="300" height="300" viewBox="0 0 300 300" fill="none"><rect x="0" y="0" width="0" height="0" fill="rgba(49, 53, 65, 1)" /><defs><rect id="path_0" x="0" y="0" width="300" height="300" /></defs><g opacity="1" transform="translate(0 0)  rotate(0 150 150)"><rect fill="#FFFFFF" opacity="1" transform="translate(0 0)  rotate(0 150 150)" x="0" y="0" width="300" height="300" /><mask id="bg-mask" fill="white"><use xlink:href="#path_0"></use></mask><g mask="url(#bg-mask)" ><path id="圆形 1" fill-rule="evenodd" style="fill:#FFE6A1" transform="translate(97.09019156514 72)  rotate(0 75 75)" opacity="1" d="M75,0C33.58,0 0,33.58 0,75C0,116.42 33.58,150 75,150C116.42,150 150,116.42 150,75C150,33.58 116.42,0 75,0Z " /><path id="矩形 1" fill-rule="evenodd" style="fill:#FFFFFF" transform="translate(203.2449222112959 154.66949580437358)  rotate(-88.70179773008476 28.34295901517289 23.005878740028024)" opacity="1" d="M0,46.01L56.69,46.01L56.69,0L0,0L0,46.01Z " /><path id="圆形 3" fill-rule="evenodd" style="fill:#FFE6A1" transform="translate(222.09019156514 135)  rotate(0 12.5 12.5)" opacity="1" d="M12.5,0C5.6,0 0,5.6 0,12.5C0,19.4 5.6,25 12.5,25C19.4,25 25,19.4 25,12.5C25,5.6 19.4,0 12.5,0Z " /><path id="矩形 4" fill-rule="evenodd" style="fill:#FFA9A3" transform="translate(41.09019156514001 85)  rotate(3 65.5 12.5)" opacity="1" d="M3.0616169978683836e-16,20C0,21.32608244919772 0.5267842018270894,22.597852013692563 1.4644660940672627,23.535533905932738C2.4021479863074364,24.473215798172912 3.67391755080228,25 5,25L126,25C128.76142374915398,25 131,22.761423749153966 131,20L131,5.000000000000001C131,3.6739175508022788 130.4732157981729,2.4021479863074338 129.53553390593274,1.4644660940672605C128.59785201369257,0.5267842018270876 127.32608244919771,-8.881784197001252e-16 126,-8.881784197001252e-16L5.000000000000001,0C3.67391755080228,0 2.4021479863074355,0.5267842018270885 1.4644660940672618,1.4644660940672622C0.5267842018270885,2.402147986307436 -8.881784197001252e-16,3.6739175508022814 -8.881784197001252e-16,5.000000000000002Z " /><path id="圆形 2" fill-rule="evenodd" style="fill:#FFFFFF" transform="translate(122.09019156514 98)  rotate(0 50 50)" opacity="1" d="M50,0C22.39,0 0,22.39 0,50C0,77.61 22.39,100 50,100C77.61,100 100,77.61 100,50C100,22.39 77.61,0 50,0Z " /><path id="矩形 2" fill-rule="evenodd" style="fill:#FFE6A1" transform="translate(47.09019156514001 72)  rotate(7 12.9 75.5)" opacity="1" d="M3.0616169978683836e-16,146C0,147.3260824491977 0.5267842018270894,148.59785201369257 1.4644660940672627,149.53553390593274C2.4021479863074364,150.4732157981729 3.67391755080228,151 5,151L20.8,151C23.561423749153967,151 25.8,148.76142374915398 25.8,146L25.8,5.000000000000001C25.8,3.6739175508022788 25.273215798172913,2.4021479863074338 24.33553390593274,1.4644660940672605C23.397852013692564,0.5267842018270876 22.126082449197717,-8.881784197001252e-16 20.799999999999997,-8.881784197001252e-16L5.000000000000001,0C3.67391755080228,0 2.4021479863074355,0.5267842018270885 1.4644660940672618,1.4644660940672622C0.5267842018270885,2.402147986307436 -8.881784197001252e-16,3.6739175508022814 -8.881784197001252e-16,5.000000000000002Z " /><path id="矩形 3" fill-rule="evenodd" style="fill:#FFE6A1" transform="translate(41 199.47461905520228)  rotate(7 25 12.5)" opacity="1" d="M3.0616169978683836e-16,20C0,21.32608244919772 0.5267842018270894,22.597852013692563 1.4644660940672627,23.535533905932738C2.4021479863074364,24.473215798172912 3.67391755080228,25 5,25L45,25C47.76142374915397,25 50,22.761423749153966 50,20L50,5.000000000000001C50,3.6739175508022788 49.47321579817291,2.4021479863074338 48.53553390593274,1.4644660940672605C47.59785201369256,0.5267842018270876 46.32608244919772,-8.881784197001252e-16 45,-8.881784197001252e-16L5.000000000000001,0C3.67391755080228,0 2.4021479863074355,0.5267842018270885 1.4644660940672618,1.4644660940672622C0.5267842018270885,2.402147986307436 -8.881784197001252e-16,3.6739175508022814 -8.881784197001252e-16,5.000000000000002Z " /><path id="矩形 5" fill-rule="evenodd" style="fill:#FFA9A3" transform="translate(90.09019156514 88)  rotate(7 11.03123263511225 70)" opacity="1" d="M3.0616169978683836e-16,135C0,136.3260824491977 0.5267842018270894,137.59785201369257 1.4644660940672627,138.53553390593274C2.4021479863074364,139.4732157981729 3.67391755080228,140 5,140L17.0624652702245,140C19.823889019378466,140 22.0624652702245,137.76142374915398 22.0624652702245,135L22.0624652702245,5.000000000000001C22.0624652702245,3.6739175508022788 21.53568106839741,2.4021479863074338 20.597999176157238,1.4644660940672605C19.660317283917063,0.5267842018270876 18.388547719422217,-8.881784197001252e-16 17.062465270224497,-8.881784197001252e-16L5.000000000000001,0C3.67391755080228,0 2.4021479863074355,0.5267842018270885 1.4644660940672618,1.4644660940672622C0.5267842018270885,2.402147986307436 -8.881784197001252e-16,3.6739175508022814 -8.881784197001252e-16,5.000000000000002Z " /><path id="矩形 6" fill-rule="evenodd" style="fill:#FFA9A3" transform="translate(194.09019156514 174)  rotate(-38.402137160189966 12.5 25)" opacity="1" d="M3.0616169978683836e-16,45C0,46.32608244919772 0.5267842018270894,47.59785201369257 1.4644660940672627,48.53553390593274C2.4021479863074364,49.47321579817291 3.67391755080228,50 5,50L20,50C22.761423749153966,50 25,47.76142374915397 25,45L25,5.000000000000001C25,3.6739175508022788 24.47321579817291,2.4021479863074338 23.535533905932738,1.4644660940672605C22.597852013692563,0.5267842018270876 21.326082449197717,-8.881784197001252e-16 19.999999999999996,-8.881784197001252e-16L5.000000000000001,0C3.67391755080228,0 2.4021479863074355,0.5267842018270885 1.4644660940672618,1.4644660940672622C0.5267842018270885,2.402147986307436 -8.881784197001252e-16,3.6739175508022814 -8.881784197001252e-16,5.000000000000002Z " /></g></g></svg>